<svg width="23" height="33" viewBox="0 0 23 33" fill="none" xmlns="http://www.w3.org/2000/svg">
<path d="M22.9609 13.9805C22.9609 14.6836 22.375 15.2344 21.7109 15.2344H20.4609L20.4883 21.4922C20.4883 21.5977 20.4805 21.7031 20.4688 21.8086V22.4375C20.4688 23.3008 19.7695 24 18.9062 24H18.2812C18.2383 24 18.1953 24 18.1523 23.9961C18.0977 24 18.043 24 17.9883 24H16.7188H15.7812C14.918 24 14.2188 23.3008 14.2188 22.4375V21.5V19C14.2188 18.3086 13.6602 17.75 12.9688 17.75H10.4688C9.77734 17.75 9.21875 18.3086 9.21875 19V21.5V22.4375C9.21875 23.3008 8.51953 24 7.65625 24H6.71875H5.47266C5.41406 24 5.35547 23.9961 5.29688 23.9922C5.25 23.9961 5.20312 24 5.15625 24H4.53125C3.66797 24 2.96875 23.3008 2.96875 22.4375V18.0625C2.96875 18.0273 2.96875 17.9883 2.97266 17.9531V15.2344H1.71875C1.01562 15.2344 0.46875 14.6875 0.46875 13.9805C0.46875 13.6289 0.585938 13.3164 0.859375 13.043L10.875 4.3125C11.1484 4.03906 11.4609 4 11.7344 4C12.0078 4 12.3203 4.07812 12.5547 4.27344L22.5312 13.043C22.8438 13.3164 23 13.6289 22.9609 13.9805Z" fill="#9CA3AF"/>
</svg>