<svg width="21" height="33" viewBox="0 0 21 33" fill="none" xmlns="http://www.w3.org/2000/svg">
<path d="M10.1562 4C12.8084 4 15.352 5.05357 17.2273 6.92893C19.1027 8.8043 20.1562 11.3478 20.1562 14C20.1562 16.6522 19.1027 19.1957 17.2273 21.0711C15.352 22.9464 12.8084 24 10.1562 24C7.50409 24 4.96055 22.9464 3.08518 21.0711C1.20982 19.1957 0.15625 16.6522 0.15625 14C0.15625 11.3478 1.20982 8.8043 3.08518 6.92893C4.96055 5.05357 7.50409 4 10.1562 4ZM9.21875 8.6875V14C9.21875 14.3125 9.375 14.6055 9.63672 14.7812L13.3867 17.2812C13.8164 17.5703 14.3984 17.4531 14.6875 17.0195C14.9766 16.5859 14.8594 16.0078 14.4258 15.7188L11.0938 13.5V8.6875C11.0938 8.16797 10.6758 7.75 10.1562 7.75C9.63672 7.75 9.21875 8.16797 9.21875 8.6875Z" fill="#9CA3AF"/>
</svg>