<svg width="18" height="33" viewBox="0 0 18 33" fill="none" xmlns="http://www.w3.org/2000/svg">
<path d="M9.03125 14C10.3573 14 11.6291 13.4732 12.5668 12.5355C13.5045 11.5979 14.0312 10.3261 14.0312 9C14.0312 7.67392 13.5045 6.40215 12.5668 5.46447C11.6291 4.52678 10.3573 4 9.03125 4C7.70517 4 6.4334 4.52678 5.49572 5.46447C4.55803 6.40215 4.03125 7.67392 4.03125 9C4.03125 10.3261 4.55803 11.5979 5.49572 12.5355C6.4334 13.4732 7.70517 14 9.03125 14ZM7.24609 15.875C3.39844 15.875 0.28125 18.9922 0.28125 22.8398C0.28125 23.4805 0.800781 24 1.44141 24H16.6211C17.2617 24 17.7812 23.4805 17.7812 22.8398C17.7812 18.9922 14.6641 15.875 10.8164 15.875H7.24609Z" fill="#9CA3AF"/>
</svg>
