<svg width="21" height="33" viewBox="0 0 21 33" fill="none" xmlns="http://www.w3.org/2000/svg">
<path d="M3.09375 5.25C1.71484 5.25 0.59375 6.37109 0.59375 7.75V20.25C0.59375 21.6289 1.71484 22.75 3.09375 22.75H18.0938C19.4727 22.75 20.5938 21.6289 20.5938 20.25V11.5C20.5938 10.1211 19.4727 9 18.0938 9H3.71875C3.375 9 3.09375 8.71875 3.09375 8.375C3.09375 8.03125 3.375 7.75 3.71875 7.75H18.0938C18.7852 7.75 19.3438 7.19141 19.3438 6.5C19.3438 5.80859 18.7852 5.25 18.0938 5.25H3.09375ZM16.8438 14.625C17.1753 14.625 17.4932 14.7567 17.7276 14.9911C17.9621 15.2255 18.0938 15.5435 18.0938 15.875C18.0938 16.2065 17.9621 16.5245 17.7276 16.7589C17.4932 16.9933 17.1753 17.125 16.8438 17.125C16.5122 17.125 16.1943 16.9933 15.9599 16.7589C15.7254 16.5245 15.5938 16.2065 15.5938 15.875C15.5938 15.5435 15.7254 15.2255 15.9599 14.9911C16.1943 14.7567 16.5122 14.625 16.8438 14.625Z" fill="#9CA3AF"/>
</svg>