<svg width="26" height="25" viewBox="0 0 26 25" fill="none" xmlns="http://www.w3.org/2000/svg">
<path d="M10.3904 0.513184C9.56069 0.513184 8.89038 1.1835 8.89038 2.01318V3.51318C8.89038 3.51787 8.89038 3.51787 8.89038 3.52256C7.08101 3.62568 5.50132 4.80225 4.89663 6.52725L3.24663 11.2382C2.15913 11.6882 1.39038 12.7616 1.39038 14.0132V20.7632V23.0132C1.39038 23.8429 2.06069 24.5132 2.89038 24.5132H4.39038C5.22007 24.5132 5.89038 23.8429 5.89038 23.0132V20.7632H20.8904V23.0132C20.8904 23.8429 21.5607 24.5132 22.3904 24.5132H23.8904C24.7201 24.5132 25.3904 23.8429 25.3904 23.0132V20.7632V14.0132C25.3904 12.7616 24.6216 11.6882 23.5341 11.2382L21.8841 6.52725C21.2794 4.80225 19.6998 3.621 17.8904 3.52256C17.8904 3.51787 17.8904 3.51787 17.8904 3.51318V2.01318C17.8904 1.1835 17.2201 0.513184 16.3904 0.513184H10.3904ZM9.14351 6.51318H17.6373C18.2748 6.51318 18.8419 6.91631 19.0529 7.51631L20.2763 11.0132H6.50444L7.72788 7.51631C7.93882 6.91631 8.50601 6.51318 9.14351 6.51318ZM5.89038 14.0132C6.28821 14.0132 6.66974 14.1712 6.95104 14.4525C7.23235 14.7338 7.39038 15.1154 7.39038 15.5132C7.39038 15.911 7.23235 16.2925 6.95104 16.5738C6.66974 16.8551 6.28821 17.0132 5.89038 17.0132C5.49256 17.0132 5.11103 16.8551 4.82972 16.5738C4.54842 16.2925 4.39038 15.911 4.39038 15.5132C4.39038 15.1154 4.54842 14.7338 4.82972 14.4525C5.11103 14.1712 5.49256 14.0132 5.89038 14.0132ZM19.3904 15.5132C19.3904 15.1154 19.5484 14.7338 19.8297 14.4525C20.111 14.1712 20.4926 14.0132 20.8904 14.0132C21.2882 14.0132 21.6697 14.1712 21.951 14.4525C22.2323 14.7338 22.3904 15.1154 22.3904 15.5132C22.3904 15.911 22.2323 16.2925 21.951 16.5738C21.6697 16.8551 21.2882 17.0132 20.8904 17.0132C20.4926 17.0132 20.111 16.8551 19.8297 16.5738C19.5484 16.2925 19.3904 15.911 19.3904 15.5132Z" fill="#FFD700"/>
</svg>